<svg width="37" height="24" viewBox="0 0 37 24" fill="none" xmlns="http://www.w3.org/2000/svg">
<path d="M18 9.32999V14.67C18 17.99 15.65 19.34 12.78 17.69L11.5 16.95C11.19 16.77 11 16.44 11 16.08V7.91999C11 7.55999 11.19 7.22999 11.5 7.04999L12.78 6.30999C15.65 4.65999 18 6.00999 18 9.32999Z" fill="#7E5EFF"/>
<path opacity="0.4" d="M10.0005 8.79V15.22C10.0005 15.61 9.58055 15.85 9.25055 15.65L8.15055 15.01C5.28055 13.36 5.28055 10.64 8.15055 8.99L9.25055 8.35C9.58055 8.16 10.0005 8.4 10.0005 8.79Z" fill="#7E5EFF"/>
<line x1="23" y1="11.5" x2="37" y2="11.5" stroke="#7E5EFF"/>
</svg>
