<svg width="32" height="32" viewBox="0 0 32 32" fill="none" xmlns="http://www.w3.org/2000/svg">
<path d="M23.4937 14.3333C22.9203 14.3333 22.467 13.8667 22.467 13.3067C22.467 12.8133 21.9737 11.7867 21.147 10.8933C20.3337 10.0267 19.4403 9.52 18.6937 9.52C18.1203 9.52 17.667 9.05333 17.667 8.49333C17.667 7.93333 18.1337 7.46667 18.6937 7.46667C20.027 7.46667 21.427 8.18667 22.6537 9.48C23.8003 10.6933 24.5337 12.2 24.5337 13.2933C24.5337 13.8667 24.067 14.3333 23.4937 14.3333Z" fill="white"/>
<path d="M28.3064 14.3333C27.733 14.3333 27.2797 13.8667 27.2797 13.3067C27.2797 8.57333 23.4264 4.73333 18.7064 4.73333C18.133 4.73333 17.6797 4.26666 17.6797 3.70666C17.6797 3.14666 18.133 2.66666 18.693 2.66666C24.5597 2.66666 29.333 7.44 29.333 13.3067C29.333 13.8667 28.8664 14.3333 28.3064 14.3333Z" fill="white"/>
<path opacity="0.4" d="M15.7203 18.9467L11.3603 23.3067C10.8803 22.88 10.4137 22.44 9.96033 21.9867C8.58699 20.6 7.34699 19.1467 6.24033 17.6267C5.14699 16.1067 4.26699 14.5867 3.62699 13.08C2.98699 11.56 2.66699 10.1067 2.66699 8.72C2.66699 7.81333 2.82699 6.94666 3.14699 6.14666C3.46699 5.33333 3.97366 4.58666 4.68033 3.92C5.53366 3.08 6.46699 2.66666 7.45366 2.66666C7.82699 2.66666 8.20033 2.74666 8.53366 2.90666C8.88033 3.06666 9.18699 3.30666 9.42699 3.65333L12.5203 8.01333C12.7603 8.34666 12.9337 8.65333 13.0537 8.94666C13.1737 9.22666 13.2403 9.50666 13.2403 9.76C13.2403 10.08 13.147 10.4 12.9603 10.7067C12.787 11.0133 12.5337 11.3333 12.2137 11.6533L11.2003 12.7067C11.0537 12.8533 10.987 13.0267 10.987 13.24C10.987 13.3467 11.0003 13.44 11.027 13.5467C11.067 13.6533 11.107 13.7333 11.1337 13.8133C11.3737 14.2533 11.787 14.8267 12.3737 15.52C12.9737 16.2133 13.6137 16.92 14.307 17.6267C14.787 18.0933 15.2537 18.5467 15.7203 18.9467Z" fill="white"/>
<path d="M29.2931 24.44C29.2931 24.8133 29.2265 25.2 29.0931 25.5733C29.0531 25.68 29.0131 25.7867 28.9598 25.8933C28.7331 26.3733 28.4398 26.8267 28.0531 27.2533C27.3998 27.9733 26.6798 28.4933 25.8665 28.8267C25.8531 28.8267 25.8398 28.84 25.8265 28.84C25.0398 29.16 24.1865 29.3333 23.2665 29.3333C21.9065 29.3333 20.4531 29.0133 18.9198 28.36C17.3865 27.7067 15.8531 26.8267 14.3331 25.72C13.8131 25.3333 13.2931 24.9467 12.7998 24.5333L17.1598 20.1733C17.5331 20.4533 17.8665 20.6667 18.1465 20.8133C18.2131 20.84 18.2931 20.88 18.3865 20.92C18.4931 20.96 18.5998 20.9733 18.7198 20.9733C18.9465 20.9733 19.1198 20.8933 19.2665 20.7467L20.2798 19.7467C20.6131 19.4133 20.9331 19.16 21.2398 19C21.5465 18.8133 21.8531 18.72 22.1865 18.72C22.4398 18.72 22.7065 18.7733 22.9998 18.8933C23.2931 19.0133 23.5998 19.1867 23.9331 19.4133L28.3465 22.5467C28.6931 22.7867 28.9331 23.0667 29.0798 23.4C29.2131 23.7333 29.2931 24.0667 29.2931 24.44Z" fill="white"/>
</svg>
