<svg width="32" height="32" viewBox="0 0 32 32" fill="none" xmlns="http://www.w3.org/2000/svg">
<path d="M23.4927 14.3333C22.9194 14.3333 22.466 13.8667 22.466 13.3067C22.466 12.8133 21.9727 11.7867 21.146 10.8933C20.3327 10.0267 19.4393 9.52001 18.6927 9.52001C18.1193 9.52001 17.666 9.05334 17.666 8.49334C17.666 7.93334 18.1327 7.46667 18.6927 7.46667C20.026 7.46667 21.426 8.18668 22.6527 9.48001C23.7993 10.6933 24.5327 12.2 24.5327 13.2933C24.5327 13.8667 24.066 14.3333 23.4927 14.3333Z" fill="#7E5EFF"/>
<path d="M28.3064 14.3333C27.733 14.3333 27.2797 13.8666 27.2797 13.3066C27.2797 8.57329 23.4264 4.73329 18.7064 4.73329C18.133 4.73329 17.6797 4.26663 17.6797 3.70663C17.6797 3.14663 18.133 2.66663 18.693 2.66663C24.5597 2.66663 29.333 7.43996 29.333 13.3066C29.333 13.8666 28.8664 14.3333 28.3064 14.3333Z" fill="#7E5EFF"/>
<path opacity="0.4" d="M15.7193 18.9466L11.3594 23.3066C10.8793 22.88 10.4127 22.44 9.95935 21.9866C8.58602 20.6 7.34602 19.1466 6.23935 17.6266C5.14602 16.1066 4.26602 14.5866 3.62602 13.08C2.98602 11.56 2.66602 10.1066 2.66602 8.71996C2.66602 7.81329 2.82602 6.94663 3.14602 6.14663C3.46602 5.33329 3.97268 4.58663 4.67935 3.91996C5.53268 3.07996 6.46602 2.66663 7.45268 2.66663C7.82602 2.66663 8.19935 2.74663 8.53268 2.90663C8.87935 3.06663 9.18602 3.30663 9.42602 3.65329L12.5194 8.01329C12.7593 8.34663 12.9327 8.65329 13.0527 8.94663C13.1727 9.22663 13.2393 9.50663 13.2393 9.75996C13.2393 10.08 13.146 10.4 12.9593 10.7066C12.786 11.0133 12.5327 11.3333 12.2127 11.6533L11.1993 12.7066C11.0527 12.8533 10.986 13.0266 10.986 13.24C10.986 13.3466 10.9993 13.44 11.026 13.5466C11.066 13.6533 11.106 13.7333 11.1327 13.8133C11.3727 14.2533 11.786 14.8266 12.3727 15.52C12.9727 16.2133 13.6127 16.92 14.306 17.6266C14.786 18.0933 15.2527 18.5466 15.7193 18.9466Z" fill="#7E5EFF"/>
<path d="M29.2941 24.44C29.2941 24.8133 29.2274 25.2 29.0941 25.5733C29.0541 25.68 29.0141 25.7866 28.9608 25.8933C28.7341 26.3733 28.4408 26.8266 28.0541 27.2533C27.4008 27.9733 26.6808 28.4933 25.8674 28.8266C25.8541 28.8266 25.8408 28.84 25.8274 28.84C25.0408 29.16 24.1874 29.3333 23.2674 29.3333C21.9074 29.3333 20.4541 29.0133 18.9208 28.36C17.3874 27.7066 15.8541 26.8266 14.3341 25.72C13.8141 25.3333 13.2941 24.9466 12.8008 24.5333L17.1608 20.1733C17.5341 20.4533 17.8674 20.6666 18.1474 20.8133C18.2141 20.84 18.2941 20.88 18.3874 20.92C18.4941 20.96 18.6008 20.9733 18.7208 20.9733C18.9474 20.9733 19.1208 20.8933 19.2674 20.7466L20.2808 19.7466C20.6141 19.4133 20.9341 19.16 21.2408 19C21.5474 18.8133 21.8541 18.72 22.1874 18.72C22.4408 18.72 22.7074 18.7733 23.0008 18.8933C23.2941 19.0133 23.6008 19.1866 23.9341 19.4133L28.3474 22.5466C28.6941 22.7866 28.9341 23.0666 29.0808 23.4C29.2141 23.7333 29.2941 24.0666 29.2941 24.44Z" fill="#7E5EFF"/>
</svg>
