<svg width="40" height="40" viewBox="0 0 40 40" fill="none" xmlns="http://www.w3.org/2000/svg">
<path d="M20 9.26672H36.6667" stroke="#E56F8C" stroke-width="2.5" stroke-miterlimit="10" stroke-linecap="round" stroke-linejoin="round"/>
<path d="M23.7 3.33337H32.9667C35.9333 3.33337 36.6667 4.06671 36.6667 7.00004V13.85C36.6667 16.7834 35.9333 17.5167 32.9667 17.5167H23.7C20.7333 17.5167 20 16.7834 20 13.85V7.00004C20 4.06671 20.7333 3.33337 23.7 3.33337Z" stroke="#E56F8C" stroke-width="2.5" stroke-linecap="round" stroke-linejoin="round"/>
<path d="M3.33398 28.4333H20.0007" stroke="#E56F8C" stroke-width="2.5" stroke-miterlimit="10" stroke-linecap="round" stroke-linejoin="round"/>
<path d="M7.03399 22.5H16.3006C19.2673 22.5 20.0007 23.2333 20.0007 26.1667V33.0167C20.0007 35.95 19.2673 36.6833 16.3006 36.6833H7.03399C4.06732 36.6833 3.33398 35.95 3.33398 33.0167V26.1667C3.33398 23.2333 4.06732 22.5 7.03399 22.5Z" stroke="#E56F8C" stroke-width="2.5" stroke-linecap="round" stroke-linejoin="round"/>
<path opacity="0.4" d="M36.6667 25C36.6667 31.45 31.45 36.6667 25 36.6667L26.75 33.75" stroke="#E56F8C" stroke-width="2.5" stroke-linecap="round" stroke-linejoin="round"/>
<path opacity="0.4" d="M3.33398 14.9999C3.33398 8.54992 8.55065 3.33325 15.0007 3.33325L13.2507 6.24992" stroke="#E56F8C" stroke-width="2.5" stroke-linecap="round" stroke-linejoin="round"/>
</svg>
