<svg width="32" height="32" viewBox="0 0 32 32" fill="none" xmlns="http://www.w3.org/2000/svg">
<path opacity="0.4" d="M28 29.3333H4C3.45333 29.3333 3 28.88 3 28.3333C3 27.7867 3.45333 27.3333 4 27.3333H28C28.5467 27.3333 29 27.7867 29 28.3333C29 28.88 28.5467 29.3333 28 29.3333Z" fill="white"/>
<path opacity="0.4" d="M25.3598 4.64C22.7731 2.05333 20.2398 1.98667 17.5864 4.64L15.9731 6.25333C15.8398 6.38667 15.7864 6.6 15.8398 6.78667C16.8531 10.32 19.6798 13.1467 23.2131 14.16C23.2664 14.1733 23.3198 14.1867 23.3731 14.1867C23.5198 14.1867 23.6531 14.1333 23.7598 14.0267L25.3598 12.4133C26.6798 11.1067 27.3198 9.84 27.3198 8.56C27.3331 7.24 26.6931 5.96 25.3598 4.64Z" fill="white"/>
<path d="M20.8131 15.3733C20.4264 15.1867 20.0531 15 19.6931 14.7867C19.3998 14.6133 19.1198 14.4267 18.8398 14.2267C18.6131 14.08 18.3464 13.8667 18.0931 13.6533C18.0664 13.64 17.9731 13.56 17.8664 13.4533C17.4264 13.08 16.9331 12.6 16.4931 12.0667C16.4531 12.04 16.3864 11.9467 16.2931 11.8267C16.1598 11.6667 15.9331 11.4 15.7331 11.0933C15.5731 10.8933 15.3864 10.6 15.2131 10.3067C14.9998 9.94667 14.8131 9.58667 14.6264 9.21333C14.4398 8.81333 14.2931 8.42667 14.1598 8.06667L5.78644 16.44C5.61311 16.6133 5.45311 16.9467 5.41311 17.1733L4.69311 22.28C4.55977 23.1867 4.81311 24.04 5.37311 24.6133C5.85311 25.08 6.51977 25.3333 7.23977 25.3333C7.39977 25.3333 7.55977 25.32 7.71977 25.2933L12.8398 24.5733C13.0798 24.5333 13.4131 24.3733 13.5731 24.2L21.9464 15.8267C21.5731 15.6933 21.2131 15.5467 20.8131 15.3733Z" fill="white"/>
</svg>
