<svg width="32" height="32" viewBox="0 0 32 32" fill="none" xmlns="http://www.w3.org/2000/svg">
<path fill-rule="evenodd" clip-rule="evenodd" d="M6.66675 4H25.3334L11.7547 17.5787C11.5357 17.0167 11.179 16.5188 10.7174 16.1307C10.4134 15.8667 9.98808 15.628 9.14008 15.1493L5.25608 12.9627C3.99075 12.252 3.35875 11.896 3.01341 11.3227C2.66675 10.748 2.66675 10.0547 2.66675 8.67067V7.75067C2.66675 5.98267 2.66675 5.09733 3.25341 4.548C3.83741 4 4.78008 4 6.66675 4Z" fill="white"/>
<path opacity="0.5" d="M29.3334 8.672V7.752C29.3334 5.984 29.3334 5.09867 28.7467 4.54933C28.1628 4 27.2201 4 25.3334 4L11.7534 17.5787C11.8201 17.7502 11.8739 17.9293 11.9148 18.116C12.0001 18.496 12.0001 18.9413 12.0001 19.8307V23.3907C12.0001 24.6027 12.0001 25.2093 12.3361 25.6813C12.6721 26.1547 13.2694 26.388 14.4614 26.8547C16.9668 27.8333 18.2188 28.3227 19.1094 27.7653C20.0001 27.208 20.0001 25.936 20.0001 23.3893V19.8293C20.0001 18.9413 20.0001 18.496 20.0841 18.116C20.2519 17.3387 20.6742 16.6396 21.2841 16.1293C21.5868 15.8667 22.0108 15.628 22.8601 15.1493L26.7441 12.9627C28.0081 12.252 28.6414 11.896 28.9867 11.3227C29.3334 10.7493 29.3334 10.056 29.3334 8.672Z" fill="white"/>
</svg>
