<svg width="40" height="40" viewBox="0 0 40 40" fill="none" xmlns="http://www.w3.org/2000/svg">
<path d="M3.89571 30.7829H36.1043C38.6964 30.7829 40 29.54 40 26.8879V9.51714C40 6.865 38.6964 5.62214 36.1043 5.62214H3.89571C1.30286 5.62142 0 6.86428 0 9.51714V26.8879C0 29.54 1.30357 30.7829 3.89571 30.7829ZM31.0264 34.9971C31.0264 34.2086 30.3907 33.5721 29.6171 33.5721H10.3529C9.57929 33.5721 8.95786 34.2079 8.95786 34.9964C8.95786 35.785 9.57929 36.4214 10.3521 36.4214H29.6164C29.9921 36.4184 30.3512 36.2668 30.6154 35.9998C30.8796 35.7328 31.0274 35.3728 31.0264 34.9971Z" fill="white" fill-opacity="0.49"/>
</svg>
