<svg width="25" height="24" viewBox="0 0 25 24" fill="none" xmlns="http://www.w3.org/2000/svg">
<path d="M22.5951 16.5V19.5C22.5951 20.88 21.4751 22 20.0951 22H12.9551C12.0651 22 11.6251 20.93 12.2451 20.3L18.1151 14.3C18.3051 14.11 18.5651 14 18.8251 14H20.0951C21.4751 14 22.5951 15.12 22.5951 16.5Z" fill="#7E5EFF"/>
<path d="M18.9655 11.29L16.2554 14L13.7954 16.45C13.1654 17.08 12.0854 16.64 12.0854 15.75C12.0854 12.54 12.0854 7.25999 12.0854 7.25999C12.0854 6.98999 12.1954 6.73999 12.3754 6.54999L13.2954 5.62999C14.2754 4.64999 15.8554 4.64999 16.8354 5.62999L18.9555 7.74999C19.9454 8.72999 19.9455 10.31 18.9655 11.29Z" fill="#7E5EFF"/>
<path d="M8.09521 2H5.09521C3.59521 2 2.59521 3 2.59521 4.5V18C2.59521 18.27 2.62521 18.54 2.67521 18.8C2.70521 18.93 2.73521 19.06 2.77521 19.19C2.82521 19.34 2.87521 19.49 2.93521 19.63C2.94521 19.64 2.94521 19.65 2.94521 19.65C2.95521 19.65 2.95521 19.65 2.94521 19.66C3.08521 19.94 3.24521 20.21 3.43521 20.46C3.54521 20.59 3.65521 20.71 3.76521 20.83C3.87521 20.95 3.99521 21.05 4.12521 21.15L4.13521 21.16C4.38521 21.35 4.65522 21.51 4.93521 21.65C4.94521 21.64 4.94521 21.64 4.94521 21.65C5.09521 21.72 5.24521 21.77 5.40521 21.82C5.53521 21.86 5.66521 21.89 5.79521 21.92C6.05521 21.97 6.32521 22 6.59521 22C7.00521 22 7.42521 21.94 7.81521 21.81C7.92521 21.77 8.03521 21.73 8.14522 21.68C8.49521 21.54 8.83521 21.34 9.13521 21.08C9.22521 21.01 9.32521 20.92 9.41521 20.83L9.45521 20.79C10.1552 20.07 10.5952 19.08 10.5952 18V4.5C10.5952 3 9.59521 2 8.09521 2ZM6.59521 19.5C5.76521 19.5 5.09521 18.83 5.09521 18C5.09521 17.17 5.76521 16.5 6.59521 16.5C7.42521 16.5 8.09521 17.17 8.09521 18C8.09521 18.83 7.42521 19.5 6.59521 19.5Z" fill="#7E5EFF"/>
</svg>
