<svg width="26" height="18" viewBox="0 0 26 18" fill="none" xmlns="http://www.w3.org/2000/svg">
<path d="M13.5 6.9975V11.0025C13.5 13.4925 11.7375 14.505 9.585 13.2675L8.625 12.7125C8.3925 12.5775 8.25 12.33 8.25 12.06V5.94C8.25 5.67 8.3925 5.4225 8.625 5.2875L9.585 4.7325C11.7375 3.495 13.5 4.5075 13.5 6.9975Z" fill="white"/>
<path d="M7.50004 6.59254V11.415C7.50004 11.7075 7.18504 11.8875 6.93754 11.7375L6.11254 11.2575C3.96004 10.02 3.96004 7.98004 6.11254 6.74254L6.93754 6.26254C7.18504 6.12004 7.50004 6.30004 7.50004 6.59254Z" fill="white"/>
<line x1="15.9172" y1="9.5" x2="25.0872" y2="9.5" stroke="white"/>
</svg>
