<svg width="27" height="18" viewBox="0 0 27 18" fill="none" xmlns="http://www.w3.org/2000/svg">
<path d="M14.4255 6.99738V11.0024C14.4255 13.4924 12.663 14.5049 10.5105 13.2674L9.55054 12.7124C9.31804 12.5774 9.17554 12.3299 9.17554 12.0599V5.93988C9.17554 5.66988 9.31804 5.42238 9.55054 5.28738L10.5105 4.73238C12.663 3.49488 14.4255 4.50738 14.4255 6.99738Z" fill="#7E5EFF"/>
<path d="M8.42552 6.59242V11.4149C8.42552 11.7074 8.11052 11.8874 7.86302 11.7374L7.03802 11.2574C4.88552 10.0199 4.88552 7.97992 7.03802 6.74242L7.86302 6.26242C8.11052 6.11992 8.42552 6.29992 8.42552 6.59242Z" fill="#7E5EFF"/>
<line x1="16.8428" y1="9.5" x2="26.0128" y2="9.5" stroke="#7E5EFF"/>
</svg>
