<svg width="32" height="32" viewBox="0 0 32 32" fill="none" xmlns="http://www.w3.org/2000/svg">
<path opacity="0.4" d="M25.3327 12C25.3327 13.9333 24.7593 15.7066 23.7727 17.1866C22.3327 19.32 20.0527 20.8266 17.3993 21.2133C16.946 21.2933 16.4793 21.3333 15.9993 21.3333C15.5193 21.3333 15.0527 21.2933 14.5993 21.2133C11.946 20.8266 9.66602 19.32 8.22602 17.1866C7.23935 15.7066 6.66602 13.9333 6.66602 12C6.66602 6.83996 10.8393 2.66663 15.9993 2.66663C21.1593 2.66663 25.3327 6.83996 25.3327 12Z" fill="#7E5EFF"/>
<path d="M28.3328 24.6266L26.1328 25.1466C25.6395 25.2666 25.2528 25.64 25.1461 26.1333L24.6795 28.0933C24.4261 29.16 23.0661 29.48 22.3595 28.64L15.9995 21.3333L9.63945 28.6533C8.93279 29.4933 7.57279 29.1733 7.31945 28.1066L6.85279 26.1466C6.73279 25.6533 6.34612 25.2666 5.86612 25.16L3.66612 24.64C2.65279 24.4 2.29279 23.1333 3.02612 22.3999L8.22612 17.2C9.66612 19.3333 11.9461 20.84 14.5995 21.2266C15.0528 21.3066 15.5195 21.3466 15.9995 21.3466C16.4795 21.3466 16.9461 21.3066 17.3995 21.2266C20.0528 20.84 22.3328 19.3333 23.7728 17.2L28.9728 22.3999C29.7061 23.1199 29.3461 24.3866 28.3328 24.6266Z" fill="#7E5EFF"/>
<path d="M16.7726 7.97337L17.5593 9.5467C17.666 9.76003 17.946 9.97337 18.1993 10.0134L19.626 10.2534C20.5326 10.4 20.746 11.0667 20.0926 11.72L18.986 12.8267C18.7993 13.0134 18.6926 13.3734 18.7593 13.64L19.0793 15.0134C19.3326 16.0934 18.7593 16.52 17.7993 15.9467L16.466 15.16C16.226 15.0134 15.826 15.0134 15.586 15.16L14.2526 15.9467C13.2926 16.5067 12.7193 16.0934 12.9726 15.0134L13.2926 13.64C13.346 13.3867 13.2526 13.0134 13.066 12.8267L11.9593 11.72C11.306 11.0667 11.5193 10.4134 12.426 10.2534L13.8526 10.0134C14.0926 9.97337 14.3726 9.76003 14.4793 9.5467L15.266 7.97337C15.6526 7.12004 16.346 7.12004 16.7726 7.97337Z" fill="#7E5EFF"/>
</svg>
