<svg width="30" height="30" viewBox="0 0 30 30" fill="none" xmlns="http://www.w3.org/2000/svg">
<path d="M15 28.5125C14.1375 28.5125 13.325 28.075 12.75 27.3125L10.875 24.8125C10.8375 24.7625 10.6875 24.6875 10.6125 24.6875H10C4.7875 24.6875 1.5625 23.275 1.5625 16.25V10C1.5625 4.475 4.475 1.5625 10 1.5625H15C15.5125 1.5625 15.9375 1.9875 15.9375 2.5C15.9375 3.0125 15.5125 3.4375 15 3.4375H10C5.525 3.4375 3.4375 5.525 3.4375 10V16.25C3.4375 21.9 5.375 22.8125 10 22.8125H10.625C11.2625 22.8125 11.9875 23.175 12.375 23.6875L14.25 26.1875C14.6875 26.7625 15.3125 26.7625 15.75 26.1875L17.625 23.6875C18.0375 23.1375 18.6875 22.8125 19.375 22.8125H20C24.475 22.8125 26.5625 20.725 26.5625 16.25V10C26.5625 9.4875 26.9875 9.0625 27.5 9.0625C28.0125 9.0625 28.4375 9.4875 28.4375 10V16.25C28.4375 21.775 25.525 24.6875 20 24.6875H19.375C19.275 24.6875 19.1875 24.7375 19.125 24.8125L17.25 27.3125C16.675 28.075 15.8625 28.5125 15 28.5125Z" fill="#7E5EFF"/>
<path d="M15 15C14.3 15 13.75 14.4375 13.75 13.75C13.75 13.0625 14.3125 12.5 15 12.5C15.6875 12.5 16.25 13.0625 16.25 13.75C16.25 14.4375 15.7 15 15 15Z" fill="#7E5EFF"/>
<path d="M20 15C19.3 15 18.75 14.4375 18.75 13.75C18.75 13.0625 19.3125 12.5 20 12.5C20.6875 12.5 21.25 13.0625 21.25 13.75C21.25 14.4375 20.7 15 20 15Z" fill="#7E5EFF"/>
<path d="M10 15C9.3 15 8.75 14.4375 8.75 13.75C8.75 13.0625 9.3125 12.5 10 12.5C10.6875 12.5 11.25 13.0625 11.25 13.75C11.25 14.4375 10.7 15 10 15Z" fill="#7E5EFF"/>
<path d="M22.5001 9.68749C21.4251 9.68749 18.8876 8.41249 18.1126 6.07499C17.8001 5.14999 17.8751 4.08749 18.3126 3.24999C18.7001 2.49999 19.3501 1.94999 20.1501 1.69999C20.9626 1.44999 21.8251 1.56249 22.5001 1.97499C23.1751 1.56249 24.0376 1.44999 24.8626 1.69999C25.6626 1.94999 26.3126 2.49999 26.7001 3.24999C27.1376 4.08749 27.2126 5.14999 26.9001 6.07499C26.1126 8.44999 23.4626 9.68749 22.5001 9.68749ZM19.8876 5.47499C20.4126 7.04999 22.2001 7.77499 22.5251 7.81249C22.8876 7.77499 24.6376 6.96249 25.1251 5.48749C25.2751 5.03749 25.2376 4.49999 25.0376 4.11249C24.8751 3.79999 24.6376 3.59999 24.3126 3.49999C23.9626 3.37499 23.4876 3.43749 23.2751 3.74999C23.1001 3.99999 22.8251 4.14999 22.5251 4.16249C22.2251 4.16249 21.9376 4.02499 21.7501 3.78749C21.4876 3.44999 21.0251 3.39999 20.6876 3.49999C20.3626 3.59999 20.1251 3.79999 19.9626 4.11249C19.7751 4.49999 19.7376 5.02499 19.8876 5.47499Z" fill="#7E5EFF"/>
</svg>
