<svg width="40" height="40" viewBox="0 0 40 40" fill="none" xmlns="http://www.w3.org/2000/svg">
<path d="M14.1673 31.6666H13.334C6.66732 31.6666 3.33398 29.9999 3.33398 21.6666V13.3333C3.33398 6.66659 6.66732 3.33325 13.334 3.33325H26.6673C33.334 3.33325 36.6673 6.66659 36.6673 13.3333V21.6666C36.6673 28.3333 33.334 31.6666 26.6673 31.6666H25.834C25.3173 31.6666 24.8173 31.9166 24.5007 32.3333L22.0007 35.6666C20.9007 37.1333 19.1007 37.1333 18.0007 35.6666L15.5007 32.3333C15.234 31.9666 14.6173 31.6666 14.1673 31.6666Z" stroke="#E56F8C" stroke-width="2.5" stroke-miterlimit="10" stroke-linecap="round" stroke-linejoin="round"/>
<path opacity="0.4" d="M11.666 13.3333H28.3327" stroke="#E56F8C" stroke-width="2.5" stroke-linecap="round" stroke-linejoin="round"/>
<path opacity="0.4" d="M11.666 21.6667H21.666" stroke="#E56F8C" stroke-width="2.5" stroke-linecap="round" stroke-linejoin="round"/>
</svg>
