<svg width="40" height="40" viewBox="0 0 40 40" fill="none" xmlns="http://www.w3.org/2000/svg">
<path d="M32.1663 13.2V21.7833C32.1663 26.9167 29.2329 29.1166 24.8329 29.1166H10.1829C9.43293 29.1166 8.71627 29.05 8.0496 28.9C7.63293 28.8334 7.23295 28.7167 6.86628 28.5834C4.36628 27.65 2.84961 25.4833 2.84961 21.7833V13.2C2.84961 8.06664 5.78293 5.8667 10.1829 5.8667H24.8329C28.5663 5.8667 31.2496 7.45002 31.9663 11.0667C32.0829 11.7334 32.1663 12.4166 32.1663 13.2Z" stroke="#E56F8C" stroke-width="2.5" stroke-miterlimit="10" stroke-linecap="round" stroke-linejoin="round"/>
<path opacity="0.4" d="M37.1674 18.1999V26.7833C37.1674 31.9166 34.2341 34.1166 29.8341 34.1166H15.1841C13.9508 34.1166 12.8341 33.95 11.8675 33.5833C9.88413 32.85 8.53411 31.3333 8.05078 28.9C8.71745 29.05 9.43411 29.1166 10.1841 29.1166H24.8341C29.2341 29.1166 32.1674 26.9166 32.1674 21.7833V13.1999C32.1674 12.4166 32.1008 11.7167 31.9675 11.0667C35.1341 11.7333 37.1674 13.9666 37.1674 18.1999Z" stroke="#E56F8C" stroke-width="2.5" stroke-miterlimit="10" stroke-linecap="round" stroke-linejoin="round"/>
<path d="M17.4996 21.9C19.9297 21.9 21.8997 19.9301 21.8997 17.5C21.8997 15.0699 19.9297 13.1 17.4996 13.1C15.0696 13.1 13.0996 15.0699 13.0996 17.5C13.0996 19.9301 15.0696 21.9 17.4996 21.9Z" stroke="#E56F8C" stroke-width="2.5" stroke-miterlimit="10" stroke-linecap="round" stroke-linejoin="round"/>
<path opacity="0.4" d="M7.9668 13.8333V21.1666" stroke="#E56F8C" stroke-width="2.5" stroke-miterlimit="10" stroke-linecap="round" stroke-linejoin="round"/>
<path opacity="0.4" d="M27.0332 13.8333V21.1666" stroke="#E56F8C" stroke-width="2.5" stroke-miterlimit="10" stroke-linecap="round" stroke-linejoin="round"/>
</svg>
