<svg width="380" height="541" viewBox="0 0 380 541" fill="none" xmlns="http://www.w3.org/2000/svg">
<g opacity="0.3">
<path d="M375.621 84.3347C355.462 120.463 316.582 176.299 217.991 134.77C92.5284 81.9212 136.935 -8.31017 32.1784 22.3373" stroke="#7E5EFF" stroke-width="1.02118"/>
<path d="M350.901 92.3036C330.743 128.432 291.862 184.267 193.272 142.739C67.8092 89.8901 112.215 -0.341327 7.45919 30.3062" stroke="#7E5EFF" stroke-width="1.02118"/>
<path d="M327.99 100.981C307.832 137.109 268.951 192.945 170.361 151.416C44.898 98.5678 89.3043 8.33641 -15.4519 38.9839" stroke="#7E5EFF" stroke-width="1.02118"/>
<path d="M307.41 110.481C287.251 146.609 248.371 202.444 149.78 160.916C24.3175 108.067 68.7237 17.8358 -36.0325 48.4833" stroke="#7E5EFF" stroke-width="1.02118"/>
<path d="M289.783 120.896C269.624 157.024 230.744 212.86 132.154 171.331C6.6905 118.482 51.0967 28.2509 -53.6595 58.8984" stroke="#7E5EFF" stroke-width="1.02118"/>
<path d="M275.745 132.26C255.586 168.388 216.706 224.224 118.116 182.695C-7.3471 129.847 37.0591 39.6151 -67.6971 70.2626" stroke="#7E5EFF" stroke-width="1.02118"/>
<path d="M265.754 144.509C245.596 180.637 206.715 236.473 108.125 194.944C-17.3378 142.096 27.0684 51.8641 -77.6878 82.5116" stroke="#7E5EFF" stroke-width="1.02118"/>
<path d="M259.868 157.475C239.71 193.603 200.829 249.439 102.239 207.91C-23.224 155.061 21.1822 64.8298 -83.574 95.4773" stroke="#7E5EFF" stroke-width="1.02118"/>
<path d="M257.671 170.941C237.513 207.069 198.632 262.905 100.042 221.376C-25.4208 168.527 18.9854 78.296 -85.7708 108.943" stroke="#7E5EFF" stroke-width="1.02118"/>
<path d="M258.407 184.71C238.248 220.838 199.368 276.674 100.778 235.145C-24.6855 182.296 19.7208 92.0651 -85.0354 122.713" stroke="#7E5EFF" stroke-width="1.02118"/>
<path d="M261.213 198.644C241.054 234.772 202.174 290.608 103.584 249.079C-21.8793 196.23 22.5269 105.999 -82.2293 136.646" stroke="#7E5EFF" stroke-width="1.02118"/>
<path d="M265.295 212.658C245.137 248.786 206.256 304.622 107.666 263.093C-17.7968 210.245 26.6094 120.013 -78.1468 150.661" stroke="#7E5EFF" stroke-width="1.02118"/>
<path d="M269.996 226.705C249.837 262.833 210.957 318.669 112.367 277.14C-13.0961 224.292 31.3101 134.06 -73.4461 164.708" stroke="#7E5EFF" stroke-width="1.02118"/>
<path d="M274.801 240.758C254.643 276.886 215.762 332.722 117.172 291.193C-8.29094 238.345 36.1153 148.113 -68.6409 178.761" stroke="#7E5EFF" stroke-width="1.02118"/>
<path d="M279.324 254.796C259.165 290.925 220.285 346.76 121.695 305.231C-3.76848 252.383 40.6378 162.152 -64.1184 192.799" stroke="#7E5EFF" stroke-width="1.02118"/>
<path d="M283.28 268.803C263.121 304.931 224.241 360.767 125.651 319.238C0.187573 266.39 44.5938 176.158 -60.1624 206.806" stroke="#7E5EFF" stroke-width="1.02118"/>
<path d="M286.469 282.763C266.31 318.891 227.43 374.727 128.84 333.198C3.37654 280.349 47.7828 190.118 -56.9734 220.765" stroke="#7E5EFF" stroke-width="1.02118"/>
<path d="M288.753 296.659C268.594 332.787 229.714 388.623 131.124 347.094C5.66072 294.245 50.067 204.014 -54.6892 234.661" stroke="#7E5EFF" stroke-width="1.02118"/>
<path d="M290.075 310.564C269.916 346.692 231.036 402.528 132.446 360.999C6.98249 308.151 51.3887 217.919 -53.3675 248.567" stroke="#7E5EFF" stroke-width="1.02118"/>
<path d="M290.752 324.328C270.593 360.456 231.713 416.292 133.123 374.763C7.65974 321.915 52.066 231.683 -52.6902 262.331" stroke="#7E5EFF" stroke-width="1.02118"/>
<path d="M290.884 338.042C270.726 374.17 231.845 430.006 133.255 388.477C7.79206 335.629 52.1983 245.397 -52.5579 276.045" stroke="#7E5EFF" stroke-width="1.02118"/>
<path opacity="0.9" d="M290.397 351.695C270.239 387.823 231.358 443.659 132.768 402.13C7.30525 349.281 51.7115 259.05 -53.0447 289.697" stroke="#7E5EFF" stroke-width="1.02118"/>
<path opacity="0.8" d="M289.199 365.273C269.04 401.401 230.16 457.237 131.57 415.708C6.10652 362.86 50.5128 272.628 -54.2434 303.276" stroke="#7E5EFF" stroke-width="1.02118"/>
<path opacity="0.7" d="M287.168 378.759C267.009 414.887 228.129 470.723 129.539 429.194C4.07576 376.345 48.482 286.114 -56.2742 316.761" stroke="#7E5EFF" stroke-width="1.02118"/>
<path opacity="0.6" d="M284.15 392.125C263.991 428.253 225.111 484.089 126.521 442.56C1.05769 389.711 45.4639 299.48 -59.2923 330.127" stroke="#7E5EFF" stroke-width="1.02118"/>
<path opacity="0.5" d="M279.934 405.334C259.775 441.462 220.895 497.297 122.304 455.769C-3.15862 402.92 41.2476 312.689 -63.5086 343.336" stroke="#7E5EFF" stroke-width="1.02118"/>
<path opacity="0.4" d="M274.224 418.327C254.065 454.455 215.185 510.291 116.594 468.762C-8.86858 415.913 35.5377 325.682 -69.2185 356.329" stroke="#7E5EFF" stroke-width="1.02118"/>
<path opacity="0.3" d="M266.595 431.01C246.437 467.139 207.556 522.974 108.966 481.445C-16.497 428.597 27.9092 338.365 -76.847 369.013" stroke="#7E5EFF" stroke-width="1.02118"/>
<path opacity="0.2" d="M256.444 443.224C236.286 479.352 197.405 535.188 98.8151 493.659C-26.6479 440.81 17.7584 350.579 -86.9978 381.226" stroke="#7E5EFF" stroke-width="1.02118"/>
<path opacity="0.1" d="M243.434 454.729C223.275 490.858 184.395 546.693 85.8044 505.164C-39.6586 452.316 4.74762 362.084 -100.009 392.732" stroke="#7E5EFF" stroke-width="1.02118"/>
</g>
</svg>
