<svg width="309" height="228" viewBox="0 0 309 228" fill="none" xmlns="http://www.w3.org/2000/svg">
<path opacity="0.2" d="M-110.329 227.241C-75.5669 220.243 -20.6487 204.671 -41.7895 137.736C-68.6927 52.5564 -154.594 66.3762 -111.559 6.46294M-99.5285 213.214C-64.7665 206.216 -9.84827 190.643 -30.9891 123.708C-57.8923 38.5289 -143.794 52.3486 -100.758 -7.56461M-88.3865 200.406C-53.6245 193.408 1.29371 177.836 -19.8471 110.901C-46.7503 25.7215 -132.652 39.5412 -89.6163 -20.372M-76.8847 189.157C-42.1227 182.159 12.7955 166.587 -8.34531 99.6516C-35.2485 14.4723 -121.15 28.292 -78.1145 -31.6212M-65.0375 179.864C-30.2755 172.866 24.6428 157.293 3.50192 90.3585C-23.4013 5.17915 -109.303 18.9989 -66.2673 -40.9143M-52.9134 172.923C-18.1514 165.925 36.7668 150.353 15.626 83.4176C-11.2772 -1.76175 -97.1785 12.058 -54.1432 -47.8552M-40.6399 168.607C-5.87791 161.609 49.0403 146.036 27.8995 79.1012C0.996285 -6.0782 -84.905 7.74156 -41.8697 -52.1717M-28.3727 166.926C6.3893 159.928 61.3075 144.355 40.1667 77.4206C13.2635 -7.75877 -72.6378 6.06099 -29.6025 -53.8523M-16.2376 167.592C18.5244 160.594 73.4426 145.021 52.3018 78.0861C25.3986 -7.09324 -60.5027 6.72653 -17.4674 -53.1867M-4.28995 170.108C30.472 163.11 85.3903 147.537 64.2494 80.6025C37.3462 -4.57683 -48.555 9.24294 -5.51975 -50.6703M7.48162 173.925C42.2436 166.927 97.1618 151.354 76.021 84.4193C49.1178 -0.760099 -36.7835 13.0597 6.25181 -46.8536M19.1265 178.539C53.8884 171.541 108.807 155.969 87.6658 89.0338C60.7626 3.85444 -25.1386 17.6742 17.8966 -42.239M30.7048 183.54C65.4668 176.542 120.385 160.969 99.2442 94.0341C72.341 8.8547 -13.5603 22.6745 29.475 -37.2388M42.2718 188.605C77.0338 181.607 131.952 166.034 110.811 99.0994C83.908 13.9201 -1.99331 27.7398 41.042 -32.1734M53.8697 193.494C88.6317 186.496 143.55 170.923 122.409 103.988C95.5059 18.8091 9.60463 32.6289 52.6399 -27.2844M65.5278 198.03C100.29 191.032 155.208 175.459 134.067 108.524C107.164 23.3447 21.2627 37.1645 64.298 -22.7488M77.2628 202.085C112.025 195.087 166.943 179.515 145.802 112.58C118.899 27.4004 32.9977 41.2202 76.033 -18.6931M89.0822 205.575C123.844 198.577 178.762 183.004 157.622 116.07C130.718 30.8901 44.817 44.7099 87.8523 -15.2033M101.058 208.473C135.82 201.475 190.738 185.902 169.598 118.967C142.694 33.788 56.7931 47.6077 99.8284 -12.3055M113.01 210.953C147.772 203.955 202.69 188.383 181.55 121.448C154.646 36.2683 68.7452 50.0881 111.78 -9.82514M125.002 213.09C159.764 206.092 214.683 190.52 193.542 123.585C166.638 38.4056 80.7372 52.2253 123.772 -7.68791M137.037 214.837C171.799 207.839 226.717 192.267 205.576 125.332C178.673 40.1523 92.7719 53.9721 135.807 -5.9412M149.116 216.134C183.878 209.136 238.797 193.563 217.656 126.629C190.753 41.4492 104.851 55.2689 147.887 -4.6443M161.243 216.905C196.005 209.907 250.923 194.334 229.782 127.399C202.879 42.2201 116.978 56.0399 160.013 -3.87335M173.417 217.05C208.179 210.052 263.098 194.479 241.957 127.545C215.054 42.3652 129.152 56.1849 172.188 -3.72833M185.639 216.434C220.401 209.436 275.32 193.863 254.179 126.928C227.276 41.7488 141.374 55.5686 184.41 -4.34464M197.903 214.865C232.665 207.867 287.583 192.295 266.442 125.36C239.539 40.1804 153.638 54.0001 196.673 -5.91311M210.192 212.069C244.954 205.071 299.872 189.498 278.732 122.563C251.828 37.3839 165.927 51.2037 208.962 -8.70957M222.459 207.648C257.221 200.65 312.14 185.078 290.999 118.143C264.096 32.9635 178.194 46.7832 221.23 -13.13M234.549 201.361C269.311 194.363 324.229 178.791 303.088 111.856C276.185 26.6765 190.284 40.4963 233.319 -19.417" stroke="#E56F8C" stroke-width="1.1252"/>
</svg>
