<svg width="18" height="18" viewBox="0 0 18 18" fill="none" xmlns="http://www.w3.org/2000/svg">
<path d="M6.86992 8.1525C6.79492 8.145 6.70492 8.145 6.62242 8.1525C4.83742 8.0925 3.41992 6.63 3.41992 4.83C3.41992 2.9925 4.90492 1.5 6.74992 1.5C8.58742 1.5 10.0799 2.9925 10.0799 4.83C10.0724 6.63 8.65492 8.0925 6.86992 8.1525Z" stroke="#292D32" stroke-width="1.5" stroke-linecap="round" stroke-linejoin="round"/>
<path d="M12.3075 3C13.7625 3 14.9325 4.1775 14.9325 5.625C14.9325 7.0425 13.8075 8.1975 12.405 8.25C12.345 8.2425 12.2775 8.2425 12.21 8.25" stroke="#292D32" stroke-width="1.5" stroke-linecap="round" stroke-linejoin="round"/>
<path d="M3.12004 10.92C1.30504 12.135 1.30504 14.115 3.12004 15.3225C5.18254 16.7025 8.56504 16.7025 10.6275 15.3225C12.4425 14.1075 12.4425 12.1275 10.6275 10.92C8.57254 9.5475 5.19004 9.5475 3.12004 10.92Z" stroke="#292D32" stroke-width="1.5" stroke-linecap="round" stroke-linejoin="round"/>
<path d="M13.7549 15C14.2949 14.8875 14.8049 14.67 15.2249 14.3475C16.3949 13.47 16.3949 12.0225 15.2249 11.145C14.8124 10.83 14.3099 10.62 13.7774 10.5" stroke="#292D32" stroke-width="1.5" stroke-linecap="round" stroke-linejoin="round"/>
</svg>
