<svg width="24" height="24" viewBox="0 0 24 24" fill="none" xmlns="http://www.w3.org/2000/svg">
<path d="M18.54 4.12L13.04 2.06C12.47 1.85 11.54 1.85 10.97 2.06L5.47005 4.12C4.41005 4.52 3.55005 5.76 3.55005 6.89V14.99C3.55005 15.8 4.08005 16.87 4.73005 17.35L10.23 21.46C11.2 22.19 12.79 22.19 13.76 21.46L19.26 17.35C19.91 16.86 20.4401 15.8 20.4401 14.99V6.89C20.4501 5.76 19.59 4.52 18.54 4.12ZM15.48 9.72L11.18 14.02C11.03 14.17 10.84 14.24 10.65 14.24C10.46 14.24 10.27 14.17 10.12 14.02L8.52005 12.4C8.23005 12.11 8.23005 11.63 8.52005 11.34C8.81005 11.05 9.29005 11.05 9.58005 11.34L10.66 12.42L14.43 8.65C14.72 8.36 15.2 8.36 15.49 8.65C15.78 8.94 15.78 9.43 15.48 9.72Z" fill="#A4A4A4"/>
</svg>
