<svg width="29" height="29" viewBox="0 0 29 29" fill="none" xmlns="http://www.w3.org/2000/svg">
<path d="M19.1502 26.516C20.2893 26.516 21.2126 25.5927 21.2126 24.4537C21.2126 23.3146 20.2893 22.3913 19.1502 22.3913C18.0112 22.3913 17.0879 23.3146 17.0879 24.4537C17.0879 25.5927 18.0112 26.516 19.1502 26.516Z" fill="white"/>
<path d="M9.72251 26.516C10.8615 26.516 11.7849 25.5927 11.7849 24.4537C11.7849 23.3146 10.8615 22.3913 9.72251 22.3913C8.58351 22.3913 7.66016 23.3146 7.66016 24.4537C7.66016 25.5927 8.58351 26.516 9.72251 26.516Z" fill="white"/>
<path opacity="0.4" d="M5.70343 4.64326L5.46774 7.53055C5.4206 8.08444 5.85664 8.54406 6.41053 8.54406H24.4532C24.9482 8.54406 25.3607 8.16693 25.396 7.67197C25.5492 5.58604 23.9582 3.88902 21.8723 3.88902H7.41224C7.29439 3.37049 7.05869 2.87551 6.69336 2.46304C6.1159 1.83844 5.29097 1.47311 4.44246 1.47311H2.35652C1.87334 1.47311 1.47266 1.8738 1.47266 2.35698C1.47266 2.84016 1.87334 3.24085 2.35652 3.24085H4.4071C4.77244 3.24085 5.11419 3.39406 5.36168 3.65333C5.60916 3.92438 5.727 4.27792 5.70343 4.64326Z" fill="white"/>
<path d="M24.1718 10.3118H6.09374C5.59878 10.3118 5.19809 10.6889 5.15095 11.1721L4.72669 16.2985C4.5617 18.3019 6.14088 20.0343 8.1561 20.0343H21.2609C23.0286 20.0343 24.5843 18.5848 24.7139 16.817L25.1028 11.3135C25.1499 10.7714 24.7257 10.3118 24.1718 10.3118Z" fill="white"/>
</svg>
