<svg width="32" height="32" viewBox="0 0 32 32" fill="none" xmlns="http://www.w3.org/2000/svg">
<path d="M21.6673 29.9999C22.956 29.9999 24.0007 28.9552 24.0007 27.6666C24.0007 26.3779 22.956 25.3333 21.6673 25.3333C20.3787 25.3333 19.334 26.3779 19.334 27.6666C19.334 28.9552 20.3787 29.9999 21.6673 29.9999Z" fill="#7E5EFF"/>
<path d="M10.9993 29.9999C12.288 29.9999 13.3327 28.9552 13.3327 27.6666C13.3327 26.3779 12.288 25.3333 10.9993 25.3333C9.71068 25.3333 8.66602 26.3779 8.66602 27.6666C8.66602 28.9552 9.71068 29.9999 10.9993 29.9999Z" fill="#7E5EFF"/>
<path opacity="0.4" d="M6.45268 5.2533L6.18601 8.51996C6.13268 9.14663 6.62602 9.66663 7.25269 9.66663H27.666C28.226 9.66663 28.6927 9.23995 28.7327 8.67995C28.906 6.31995 27.106 4.39996 24.746 4.39996H8.38601C8.25267 3.8133 7.98601 3.25329 7.57267 2.78662C6.91934 2.07995 5.98602 1.66663 5.02602 1.66663H2.66602C2.11935 1.66663 1.66602 2.11996 1.66602 2.66663C1.66602 3.21329 2.11935 3.66663 2.66602 3.66663H4.98602C5.39936 3.66663 5.78602 3.83997 6.06602 4.1333C6.34602 4.43997 6.47934 4.83996 6.45268 5.2533Z" fill="#7E5EFF"/>
<path d="M27.3474 11.6667H6.89406C6.33406 11.6667 5.88072 12.0934 5.82739 12.6401L5.34739 18.4401C5.16072 20.7068 6.94739 22.6667 9.22739 22.6667H24.0541C26.0541 22.6667 27.8141 21.0268 27.9607 19.0268L28.4007 12.8001C28.4541 12.1868 27.9741 11.6667 27.3474 11.6667Z" fill="#7E5EFF"/>
</svg>
