<svg width="37" height="37" viewBox="0 0 37 37" fill="none" xmlns="http://www.w3.org/2000/svg">
<path opacity="0.5" d="M19.7026 33.1225C24.3664 32.1886 30.3968 28.8332 30.3968 20.1576C30.3968 12.2637 24.6185 7.00614 20.4635 4.59069C19.5399 4.0536 18.4613 4.75928 18.4613 5.82602V8.55328C18.4613 10.7047 17.5572 14.6314 15.0447 16.2651C13.7617 17.0991 12.3742 15.8504 12.219 14.3286L12.0907 13.0783C11.9415 11.6252 10.4615 10.7434 9.30076 11.6297C7.21354 13.2186 5.03381 16.0085 5.03381 20.1561C5.03381 30.7653 12.9247 33.4194 16.8694 33.4194C17.0991 33.4194 17.3408 33.4105 17.5915 33.397C18.2569 33.3135 17.5915 33.5447 19.7026 33.121" fill="white"/>
<path d="M12.4933 28.1142C12.4933 32.0231 15.6428 33.2316 17.5913 33.3987C18.2567 33.3151 17.5913 33.5464 19.7024 33.1226C21.2525 32.5751 22.9369 31.1697 22.9369 28.1142C22.9369 26.1792 21.715 24.9841 20.7587 24.4246C20.4663 24.2531 20.1261 24.4694 20.1007 24.8066C20.0172 25.8778 18.9878 26.7312 18.288 25.9166C17.6689 25.1975 17.4078 24.1456 17.4078 23.4728V22.5925C17.4078 22.0644 16.8752 21.7123 16.4186 21.9838C14.7238 22.9879 12.4933 25.0557 12.4933 28.1142Z" fill="white"/>
</svg>
