<svg width="24" height="24" viewBox="0 0 24 24" fill="none" xmlns="http://www.w3.org/2000/svg">
<path opacity="0.5" d="M12.5911 20.9709C15.5617 20.376 19.4027 18.2388 19.4027 12.713C19.4027 7.68512 15.7223 4.33636 13.0758 2.79787C12.4875 2.45577 11.8005 2.90525 11.8005 3.58469V5.32179C11.8005 6.69208 11.2246 9.1932 9.62438 10.2337C8.80714 10.765 7.92339 9.96957 7.82456 9.0003L7.74284 8.20397C7.64781 7.2784 6.70514 6.71679 5.96583 7.28125C4.6364 8.29329 3.24805 10.0703 3.24805 12.7121C3.24805 19.4694 8.27404 21.16 10.7866 21.16C10.9329 21.16 11.0868 21.1543 11.2465 21.1457C11.6703 21.0925 11.2465 21.2398 12.5911 20.9699" fill="black"/>
<path d="M7.99933 17.7809C7.99933 20.2706 10.0054 21.0403 11.2464 21.1468C11.6702 21.0936 11.2464 21.2408 12.591 20.971C13.5784 20.6222 14.6512 19.7271 14.6512 17.7809C14.6512 16.5484 13.873 15.7872 13.2638 15.4309C13.0776 15.3216 12.8609 15.4594 12.8448 15.6742C12.7916 16.3564 12.1359 16.9 11.6902 16.3812C11.2958 15.9231 11.1295 15.2532 11.1295 14.8246V14.2639C11.1295 13.9276 10.7903 13.7033 10.4995 13.8762C9.41999 14.5158 7.99933 15.8328 7.99933 17.7809Z" fill="black"/>
</svg>
