<svg width="21" height="21" viewBox="0 0 21 21" fill="none" xmlns="http://www.w3.org/2000/svg">
<g opacity="0.5">
<path opacity="0.5" d="M16.9392 9.41047C16.9498 10.4192 16.7602 11.42 16.3815 12.3551C16.0027 13.2901 15.4423 14.1407 14.7327 14.8578C14.0231 15.5748 13.1784 16.144 12.2474 16.5325C11.3164 16.921 10.3176 17.121 9.30881 17.121C8.30001 17.121 7.30121 16.921 6.37021 16.5325C5.43921 16.144 4.59447 15.5748 3.88488 14.8578C3.17528 14.1407 2.61491 13.2901 2.23617 12.3551C1.85743 11.42 1.66785 10.4192 1.6784 9.41047C1.6994 7.40057 2.51257 5.48012 3.94127 4.06627C5.36996 2.65243 7.2988 1.85937 9.30881 1.85938C11.3188 1.85937 13.2477 2.65243 14.6764 4.06627C16.1051 5.48012 16.9182 7.40057 16.9392 9.41047Z" fill="black"/>
<path fill-rule="evenodd" clip-rule="evenodd" d="M15.7108 15.8121C15.8238 15.6993 15.977 15.6359 16.1367 15.6359C16.2964 15.6359 16.4495 15.6993 16.5625 15.8121L18.1692 17.418C18.2822 17.531 18.3457 17.6843 18.3457 17.8442C18.3457 18.0041 18.2822 18.1574 18.1692 18.2705C18.0561 18.3835 17.9028 18.447 17.7429 18.447C17.583 18.447 17.4297 18.3835 17.3167 18.2705L15.7117 16.663C15.5988 16.55 15.5354 16.3968 15.5354 16.2371C15.5354 16.0774 15.5988 15.9243 15.7117 15.8113" fill="black"/>
</g>
</svg>
