<svg width="29" height="29" viewBox="0 0 29 29" fill="none" xmlns="http://www.w3.org/2000/svg">
<path d="M9.28343 21.7993C9.75762 21.7993 10.2124 21.9877 10.5477 22.323C10.883 22.6583 11.0714 23.1131 11.0714 23.5873C11.0714 24.0615 10.883 24.5162 10.5477 24.8515C10.2124 25.1868 9.75762 25.3752 9.28343 25.3752C8.80924 25.3752 8.35446 25.1868 8.01916 24.8515C7.68386 24.5162 7.49548 24.0615 7.49548 23.5873C7.49548 23.1131 7.68386 22.6583 8.01916 22.323C8.35446 21.9877 8.80924 21.7993 9.28343 21.7993ZM20.0111 21.7993C20.4853 21.7993 20.9401 21.9877 21.2754 22.323C21.6107 22.6583 21.799 23.1131 21.799 23.5873C21.799 24.0615 21.6107 24.5162 21.2754 24.8515C20.9401 25.1868 20.4853 25.3752 20.0111 25.3752C19.5369 25.3752 19.0821 25.1868 18.7468 24.8515C18.4115 24.5162 18.2232 24.0615 18.2232 23.5873C18.2232 23.1131 18.4115 22.6583 18.7468 22.323C19.0821 21.9877 19.5369 21.7993 20.0111 21.7993Z" fill="white"/>
<path opacity="0.5" d="M2.82766 3.62284C2.90625 3.39921 3.07044 3.21594 3.28413 3.11334C3.49782 3.01075 3.74351 2.99722 3.96717 3.07573L4.32595 3.20208C5.06139 3.46074 5.68479 3.68006 6.17707 3.92084C6.70154 4.17949 7.1521 4.49655 7.49062 4.99241C7.82675 5.4835 7.96621 6.02346 8.02938 6.61586C8.05799 6.88048 8.07349 7.1737 8.08183 7.49553H20.7619C22.7704 7.49553 24.5786 7.49553 25.1078 8.1833C25.6371 8.87106 25.4297 9.90807 25.0161 11.9809L24.4201 14.8714C24.0446 16.6927 23.8575 17.6046 23.1995 18.1398C22.5415 18.6761 21.6118 18.6761 19.7511 18.6761H13.4302C10.1046 18.6761 8.44299 18.6761 7.41075 17.5867C6.37851 16.4972 6.30223 15.341 6.30223 11.8343V8.73279C6.30223 7.85074 6.30223 7.26072 6.25217 6.80777C6.20449 6.37509 6.12224 6.15815 6.01377 6.00081C5.91007 5.84705 5.75154 5.70282 5.38918 5.52641C5.00418 5.33808 4.48091 5.15213 3.68468 4.87202L3.37477 4.76355C3.26379 4.72476 3.16155 4.66447 3.07391 4.58611C2.98626 4.50776 2.91493 4.41289 2.864 4.30693C2.81307 4.20097 2.78354 4.08601 2.7771 3.96863C2.77066 3.85124 2.78743 3.73374 2.82646 3.62284" fill="white"/>
<path d="M16.7332 11.0715C16.7332 10.8344 16.639 10.607 16.4713 10.4393C16.3037 10.2717 16.0763 10.1775 15.8392 10.1775C15.6021 10.1775 15.3747 10.2717 15.207 10.4393C15.0394 10.607 14.9452 10.8344 14.9452 11.0715V12.5614H13.4553C13.2182 12.5614 12.9908 12.6556 12.8231 12.8233C12.6555 12.9909 12.5613 13.2183 12.5613 13.4554C12.5613 13.6925 12.6555 13.9199 12.8231 14.0875C12.9908 14.2552 13.2182 14.3494 13.4553 14.3494H14.9452V15.8393C14.9452 16.0764 15.0394 16.3038 15.207 16.4714C15.3747 16.6391 15.6021 16.7333 15.8392 16.7333C16.0763 16.7333 16.3037 16.6391 16.4713 16.4714C16.639 16.3038 16.7332 16.0764 16.7332 15.8393V14.3494H18.2231C18.4602 14.3494 18.6876 14.2552 18.8552 14.0875C19.0229 13.9199 19.1171 13.6925 19.1171 13.4554C19.1171 13.2183 19.0229 12.9909 18.8552 12.8233C18.6876 12.6556 18.4602 12.5614 18.2231 12.5614H16.7332V11.0715Z" fill="white"/>
</svg>
