<svg width="24" height="24" viewBox="0 0 24 24" fill="none" xmlns="http://www.w3.org/2000/svg">
<path opacity="0.4" d="M5.73937 16C5.84937 15.51 5.64937 14.81 5.29937 14.46L2.86937 12.03C2.10937 11.27 1.80937 10.46 2.02937 9.76C2.25937 9.06 2.96937 8.58 4.02937 8.4L7.14937 7.88C7.59937 7.8 8.14937 7.4 8.35937 6.99L10.0794 3.54C10.5794 2.55 11.2594 2 11.9994 2C12.7394 2 13.4194 2.55 13.9194 3.54L15.6394 6.99C15.7694 7.25 16.0394 7.5 16.3294 7.67L5.55937 18.44C5.41937 18.58 5.17937 18.45 5.21937 18.25L5.73937 16Z" fill="#7E5EFF"/>
<path d="M18.7008 14.46C18.3408 14.82 18.1408 15.51 18.2608 16L18.9508 19.01C19.2408 20.26 19.0608 21.2 18.4408 21.65C18.1908 21.83 17.8908 21.92 17.5408 21.92C17.0308 21.92 16.4308 21.73 15.7708 21.34L12.8408 19.6C12.3808 19.33 11.6208 19.33 11.1608 19.6L8.23078 21.34C7.12078 21.99 6.17078 22.1 5.56078 21.65C5.33078 21.48 5.16078 21.25 5.05078 20.95L17.2108 8.79002C17.6708 8.33002 18.3208 8.12002 18.9508 8.23002L19.9608 8.40002C21.0208 8.58002 21.7308 9.06002 21.9608 9.76002C22.1808 10.46 21.8808 11.27 21.1208 12.03L18.7008 14.46Z" fill="#7E5EFF"/>
</svg>
