<svg width="40" height="40" viewBox="0 0 40 40" fill="none" xmlns="http://www.w3.org/2000/svg">
<path d="M20.0007 3.3335C10.8173 3.3335 3.33398 10.8168 3.33398 20.0002C3.33398 29.1835 10.8173 36.6668 20.0007 36.6668C29.184 36.6668 36.6673 29.1835 36.6673 20.0002C36.6673 10.8168 29.184 3.3335 20.0007 3.3335ZM27.9673 16.1668L18.5173 25.6168C18.284 25.8502 17.9673 25.9835 17.634 25.9835C17.3007 25.9835 16.984 25.8502 16.7507 25.6168L12.034 20.9002C11.5507 20.4168 11.5507 19.6168 12.034 19.1335C12.5173 18.6502 13.3173 18.6502 13.8007 19.1335L17.634 22.9668L26.2007 14.4002C26.684 13.9168 27.484 13.9168 27.9673 14.4002C28.4507 14.8835 28.4507 15.6668 27.9673 16.1668Z" fill="#05C72F"/>
</svg>
