<svg width="30" height="30" viewBox="0 0 30 30" fill="none" xmlns="http://www.w3.org/2000/svg">
<path d="M15 28.4375C8.45 28.4375 3.125 23.1125 3.125 16.5625C3.125 10.0125 8.45 4.6875 15 4.6875C21.55 4.6875 26.875 10.0125 26.875 16.5625C26.875 23.1125 21.55 28.4375 15 28.4375ZM15 6.5625C9.4875 6.5625 5 11.05 5 16.5625C5 22.075 9.4875 26.5625 15 26.5625C20.5125 26.5625 25 22.075 25 16.5625C25 11.05 20.5125 6.5625 15 6.5625Z" fill="#7E5EFF"/>
<path d="M15 17.1875C14.4875 17.1875 14.0625 16.7625 14.0625 16.25V10C14.0625 9.4875 14.4875 9.0625 15 9.0625C15.5125 9.0625 15.9375 9.4875 15.9375 10V16.25C15.9375 16.7625 15.5125 17.1875 15 17.1875Z" fill="#7E5EFF"/>
<path d="M18.75 3.4375H11.25C10.7375 3.4375 10.3125 3.0125 10.3125 2.5C10.3125 1.9875 10.7375 1.5625 11.25 1.5625H18.75C19.2625 1.5625 19.6875 1.9875 19.6875 2.5C19.6875 3.0125 19.2625 3.4375 18.75 3.4375Z" fill="#7E5EFF"/>
</svg>
