<svg width="19" height="19" viewBox="0 0 19 19" fill="none" xmlns="http://www.w3.org/2000/svg">
<path d="M8.565 2.02L7.965 2.47V2.47L8.565 2.02ZM9.84 3.72L9.23999 4.17001L9.24288 4.17381L9.84 3.72ZM6.1 0.25C5.68579 0.25 5.35 0.585786 5.35 1C5.35 1.41421 5.68579 1.75 6.1 1.75V0.25ZM15.55 4.723C15.55 5.13721 15.8858 5.473 16.3 5.473C16.7142 5.473 17.05 5.13721 17.05 4.723H15.55ZM17.25 8.65V13.75H18.75V8.65H17.25ZM17.25 13.75C17.25 15.4554 17.0187 16.2207 16.6197 16.6197C16.2207 17.0187 15.4554 17.25 13.75 17.25V18.75C15.4446 18.75 16.8043 18.5563 17.6803 17.6803C18.5563 16.8043 18.75 15.4446 18.75 13.75H17.25ZM13.75 17.25H5.25V18.75H13.75V17.25ZM5.25 17.25C3.54464 17.25 2.77932 17.0187 2.38033 16.6197C1.98134 16.2207 1.75 15.4554 1.75 13.75H0.25C0.25 15.4446 0.443664 16.8043 1.31967 17.6803C2.19568 18.5563 3.55536 18.75 5.25 18.75V17.25ZM1.75 13.75V5.25H0.25V13.75H1.75ZM1.75 5.25C1.75 3.54464 1.98134 2.77932 2.38033 2.38033C2.77932 1.98134 3.54464 1.75 5.25 1.75V0.25C3.55536 0.25 2.19568 0.443664 1.31967 1.31967C0.443664 2.19568 0.25 3.55536 0.25 5.25H1.75ZM5.25 1.75H6.525V0.25H5.25V1.75ZM6.525 1.75C7.09757 1.75 7.33056 1.83578 7.45522 1.91066C7.59762 1.99621 7.70485 2.12313 7.965 2.47L9.165 1.57C8.94065 1.27087 8.66538 0.887792 8.22766 0.624838C7.77219 0.351223 7.22743 0.25 6.525 0.25V1.75ZM7.965 2.47L9.24 4.17L10.44 3.27L9.165 1.57L7.965 2.47ZM9.24288 4.17381C9.38438 4.36 9.59608 4.65675 9.93443 4.86125C10.2924 5.07763 10.7073 5.15 11.2 5.15V3.65C10.8427 3.65 10.7391 3.59487 10.7103 3.5775C10.6619 3.54825 10.6186 3.505 10.4371 3.26619L9.24288 4.17381ZM11.2 5.15H13.75V3.65H11.2V5.15ZM13.75 5.15C15.4554 5.15 16.2207 5.38134 16.6197 5.78033C17.0187 6.17932 17.25 6.94464 17.25 8.65H18.75C18.75 6.95536 18.5563 5.59568 17.6803 4.71967C16.8043 3.84366 15.4446 3.65 13.75 3.65V5.15ZM6.1 1.75H13.75V0.25H6.1V1.75ZM13.75 1.75C14.4844 1.75 14.8974 1.93309 15.1322 2.16783C15.3669 2.40257 15.55 2.81561 15.55 3.55H17.05C17.05 2.58439 16.8081 1.72243 16.1928 1.10717C15.5776 0.49191 14.7156 0.25 13.75 0.25V1.75ZM15.55 3.55V4.723H17.05V3.55H15.55Z" fill="black"/>
</svg>
