<svg width="40" height="40" viewBox="0 0 40 40" fill="none" xmlns="http://www.w3.org/2000/svg">
<path opacity="0.34" d="M13.9668 20L17.9835 24.0333L26.0335 15.9667" stroke="#E56F8C" stroke-width="2.5" stroke-linecap="round" stroke-linejoin="round"/>
<path d="M17.9168 4.08333C19.0668 3.09999 20.9501 3.09999 22.1168 4.08333L24.7501 6.34999C25.2501 6.78333 26.1835 7.13333 26.8501 7.13333H29.6835C31.4501 7.13333 32.9001 8.58333 32.9001 10.35V13.1833C32.9001 13.8333 33.2501 14.7833 33.6835 15.2833L35.9501 17.9167C36.9335 19.0667 36.9335 20.95 35.9501 22.1167L33.6835 24.75C33.2501 25.25 32.9001 26.1833 32.9001 26.85V29.6833C32.9001 31.45 31.4501 32.9 29.6835 32.9H26.8501C26.2001 32.9 25.2501 33.25 24.7501 33.6833L22.1168 35.95C20.9668 36.9333 19.0835 36.9333 17.9168 35.95L15.2835 33.6833C14.7835 33.25 13.8501 32.9 13.1835 32.9H10.3001C8.53346 32.9 7.08346 31.45 7.08346 29.6833V26.8333C7.08346 26.1833 6.73346 25.25 6.3168 24.75L4.0668 22.1C3.10013 20.95 3.10013 19.0833 4.0668 17.9333L6.3168 15.2833C6.73346 14.7833 7.08346 13.85 7.08346 13.2V10.3333C7.08346 8.56666 8.53346 7.11666 10.3001 7.11666H13.1835C13.8335 7.11666 14.7835 6.76666 15.2835 6.33333L17.9168 4.08333Z" stroke="#E56F8C" stroke-width="2.5" stroke-linecap="round" stroke-linejoin="round"/>
</svg>
